<svg xmlns="http://www.w3.org/2000/svg" viewBox="0 0 522.67 522.67"><defs><style>.cls-1{fill:#202020;}.cls-2{fill:#867770;}</style></defs><g id="Layer_2" data-name="Layer 2"><g id="Layer_1-2" data-name="Layer 1"><rect class="cls-1" width="522.67" height="522.67"/><path class="cls-2" d="M109.76,445.58h9.33V352.21h-9.33v-1.82h66.56v10.8h-4.24v-9h-40.5V397h32.5V386.89h1.82v21.95h-1.82V398.77h-32.5v46.81h44.14V436H180v11.4h-70.2Z"/><path class="cls-2" d="M191.49,415.51c1.57,12,8.12,31.89,28.49,31.89,12.25,0,19.28-8.86,19.28-18.19,0-13.7-7.28-17.46-34.19-33.22-4.61-2.91-12.74-7.4-12.74-20.5,0-15.52,15.65-27,29.59-27,13.1,0,19,4,25.46,7.76l.49,18.56h-1.82c-1.21-6.07-6.31-24.5-24-24.5-12.24,0-18.67,9.46-18.67,18.07a16.8,16.8,0,0,0,7.15,13.82c17.34,12.25,42.32,17.83,42.32,38.8,0,10.92-6.79,28.25-33,28.25a78.54,78.54,0,0,1-29-5.33l-1.82-28.37Z"/><path class="cls-2" d="M343.67,445.58v1.82H312.5v-1.82h11l-11.62-31.77H278.25l-12.43,31.77h11.4v1.82h-22v-1.82h7.4l38.44-98.1L337,445.58ZM311.26,412l-15.61-42.68L279,412Z"/><path class="cls-2" d="M351.56,415.51c1.57,12,8.12,31.89,28.49,31.89,12.25,0,19.28-8.86,19.28-18.19,0-13.7-7.28-17.46-34.19-33.22-4.61-2.91-12.74-7.4-12.74-20.5,0-15.52,15.65-27,29.59-27,13.1,0,19,4,25.46,7.76l.49,18.56h-1.82c-1.21-6.07-6.31-24.5-24-24.5-12.24,0-18.67,9.46-18.67,18.07a16.8,16.8,0,0,0,7.15,13.82c17.34,12.25,42.32,17.83,42.32,38.8,0,10.92-6.79,28.25-33,28.25a78.49,78.49,0,0,1-29-5.33l-1.82-28.37Z"/><path class="cls-2" d="M109.76,495.82h2.52V470.56h-2.52v-.49h8.43v.49h-2.53v12h13.78v-12h-2.53v-.49h8.44v.49h-2.53v25.26h2.53v.49h-8.44v-.49h2.53V483H115.66v12.79h2.53v.49h-8.43Z"/><path class="cls-2" d="M146.63,491.62V480.4h-2.1v-.49h5.15v11.51c0,2,1,3.32,2.89,3.32a10.37,10.37,0,0,0,4.72-1.48V480.4h-2.1v-.49h5.15v15.91h2.07v.49h-5.12v-2.52c-2.33,2.06-4.1,3-6.17,3C148.89,496.8,146.63,495.52,146.63,491.62Z"/><path class="cls-2" d="M190.79,495.82v.49h-7.88l0-.49h2.76L178.42,488h-2.36v7.78h2.1v.49h-7.22v-.49H173V469.25h-2.07v-.5h5.12v18.8h1.67L185,480.4h-2.46v-.49h5.94v.49h-2.73L180.09,486l9.22,9.84Z"/><path class="cls-2" d="M200.27,491.62V480.4h-2.1v-.49h5.15v11.51c0,2,1,3.32,2.88,3.32a10.38,10.38,0,0,0,4.73-1.48V480.4h-2.1v-.49H214v15.91h2.07v.49h-5.12v-2.52c-2.33,2.06-4.1,3-6.17,3C202.53,496.8,200.27,495.52,200.27,491.62Z"/><path class="cls-2" d="M244.42,495.82v.49h-7.87l0-.49h2.75L232.05,488h-2.36v7.78h2.1v.49h-7.21v-.49h2.06V469.25h-2.06v-.5h5.11v18.8h1.68l7.25-7.15h-2.46v-.49h5.93v.49h-2.72L233.73,486l9.22,9.84Z"/><path class="cls-2" d="M270.17,495.82h2.56V470.56h-2.56l0-.49h10.63c5.28,0,7.15,3.08,7.15,5.8,0,2.37-1.12,4.92-5.32,6.3,6,.43,7.42,3.71,7.42,6.63s-.85,7.38-9.91,7.51h-10Zm9.29,0c6.49,0,7-4,7-6.5,0-6.2-6.27-6.69-7.25-6.69h-2.1v-.49h1.61c3.7,0,5.64-1.94,5.64-6.27a5.32,5.32,0,0,0-5.51-5.31h-2.76v25.26Z"/><path class="cls-2" d="M301.37,491.62V480.4h-2.1v-.49h5.15v11.51c0,2,1,3.32,2.89,3.32a10.33,10.33,0,0,0,4.72-1.48V480.4h-2.1v-.49h5.16v15.91h2.06v.49H312v-2.52c-2.33,2.06-4.1,3-6.16,3C303.64,496.8,301.37,495.52,301.37,491.62Zm.69-17.09a1.94,1.94,0,1,1,1.94,1.9A1.92,1.92,0,0,1,302.06,474.53Zm8.2,0a1.94,1.94,0,1,1,3.87,0,1.94,1.94,0,0,1-3.87,0Z"/><path class="cls-2" d="M339.26,481.68a2.3,2.3,0,1,1-4.59,0,2.32,2.32,0,0,1,.33-1.18,28,28,0,0,0-4.2,4.72v10.6h2.1v.49h-7.22v-.49h2.07V480.4h-2.07v-.49h5.12v4.62c2.66-3.41,4.1-5.15,6.17-5.15A2.28,2.28,0,0,1,339.26,481.68Z"/><path class="cls-2" d="M347.3,488.08a8.47,8.47,0,0,1,8.33-8.7A8.34,8.34,0,0,1,363.8,488c0,4.73-3.54,8.79-8.17,8.79A8.55,8.55,0,0,1,347.3,488.08Zm13,1.44c0-3.84-1.8-9.64-5.48-9.64-3.38,0-4,3.8-4,6.95,0,3.87,1.87,9.48,5.64,9.48C359.73,496.31,360.29,492.64,360.29,489.52Z"/><path class="cls-2" d="M373.64,492.28h2.76c0,1.7.1,4,3.47,4,1.68,0,3.19-.72,3.19-3,0-4.65-8.86-4.13-8.86-9.12,0-3.12,2.76-4.83,5.74-4.83,2.82,0,5.32,1.81,5.32,4H382.6c0-2.17-.66-3.54-2.79-3.54a2.83,2.83,0,0,0-3.12,3c0,4,9.16,3.69,9.16,9.06,0,3.8-3.35,4.88-6,4.88C376.17,496.8,373.64,495,373.64,492.28Z"/><path class="cls-2" d="M397.13,491.62V480.4H395v-.49h5.15v11.51c0,2,1,3.32,2.89,3.32a10.37,10.37,0,0,0,4.72-1.48V480.4h-2.1v-.49h5.15v15.91h2.07v.49h-5.12v-2.52c-2.33,2.06-4.1,3-6.17,3C399.39,496.8,397.13,495.52,397.13,491.62Z"/><path class="cls-2" d="M185.35,246.35h65.42v7.73H181.56Z"/><path class="cls-2" d="M250.77,114.65,149.16,319.35l-6.92-3.43,99.89-201.27Z"/><path class="cls-2" d="M282.54,168.55c3.8,1.15,11.21,4.06,16.21,11.29a26.93,26.93,0,0,1,2.44,4.37h7.61a33.39,33.39,0,0,0-4-8.05c-7.05-10.36-18.07-13.73-22.25-14.77C282.55,163.79,282.54,166.17,282.54,168.55Z"/><path class="cls-2" d="M267.4,217.61c-20.34-3.4-38.37-6.41-38.37-25.14a26.31,26.31,0,0,1,1.64-8.6c4.36-11.13,18.7-15.32,20.1-15.71v-7c-1.92.45-20.6,5.11-26.66,19.91a34.52,34.52,0,0,0-2.31,11.62c0,24.5,22.31,28.38,43.93,32.08,20.57,3.46,40.92,7.28,40.92,28.89a28.88,28.88,0,0,1-2.09,10.19c-5.23,12.36-20.29,16.06-22,16.46q0,3.59,0,7.17c2.19-.42,21.26-4.39,28.45-20.23a35.71,35.71,0,0,0,3-13.82C314,225.71,289.25,221.26,267.4,217.61Z"/><path class="cls-2" d="M250.78,280a32,32,0,0,1-18.67-12.26,30.77,30.77,0,0,1-5.36-13.7h-7.31a37.74,37.74,0,0,0,7,18.31c8.57,11.72,21.25,14.4,24.35,15C250.77,284.9,250.78,282.47,250.78,280Z"/><path class="cls-2" d="M274.5,102.44H258.86V68.3a22,22,0,0,0,15.64-.06Z"/><rect class="cls-2" x="219.63" y="102.39" width="160.8" height="12.26"/><rect class="cls-2" x="282.55" y="307.08" width="97.88" height="12.26"/><path class="cls-2" d="M282.54,200.1h85.07V184.21H282.54Z"/><path class="cls-2" d="M250.77,102.39v217l15.89,28.13,15.89-28.13v-217Zm23.67,216.92-7.78,13.47-7.8-13.43V114.65H274.5Z"/><path class="cls-2" d="M266.65,28.06a20.88,20.88,0,1,0,20.88,20.88A20.87,20.87,0,0,0,266.65,28.06Zm0,34.07a13.19,13.19,0,1,1,13.19-13.19A13.2,13.2,0,0,1,266.65,62.13Z"/></g></g></svg>